<svg width="720" height="460" viewBox="0 0 720 460" xmlns="http://www.w3.org/2000/svg">
  <defs>
    <linearGradient id="bg" x1="0" y1="0" x2="1" y2="1">
      <stop offset="0%" stop-color="#020617"/>
      <stop offset="100%" stop-color="#020617"/>
    </linearGradient>
    <linearGradient id="accent" x1="0" y1="0" x2="1" y2="0">
      <stop offset="0%" stop-color="#2563EB"/>
      <stop offset="100%" stop-color="#3B82F6"/>
    </linearGradient>
    <linearGradient id="langbar" x1="0" y1="0" x2="1" y2="0">
      <stop offset="0%" stop-color="#2563EB"/>
      <stop offset="45%" stop-color="#60A5FA"/>
      <stop offset="75%" stop-color="#2563EB"/>
      <stop offset="100%" stop-color="#94A3B8"/>
    </linearGradient>
    <filter id="glow" x="-20%" y="-20%" width="140%" height="140%">
      <feGaussianBlur stdDeviation="6" result="blur"/>
      <feMerge>
        <feMergeNode in="blur"/>
        <feMergeNode in="SourceGraphic"/>
      </feMerge>
    </filter>
    <style>
      .title { font: 700 22px 'Segoe UI', Helvetica, Arial, sans-serif; fill: #F8FAFC; }
      .subtitle { font: 400 13px 'Segoe UI', Helvetica, Arial, sans-serif; fill: #94A3B8; }
      .label { font: 600 12px 'Segoe UI', Helvetica, Arial, sans-serif; fill: #94A3B8; letter-spacing: .04em; text-transform: uppercase; }
      .value { font: 700 30px 'Segoe UI', Helvetica, Arial, sans-serif; fill: #F8FAFC; }
      .streakNum { font: 700 34px 'Segoe UI', Helvetica, Arial, sans-serif; fill: #3B82F6; }
      .streakLbl { font: 600 12px 'Segoe UI', Helvetica, Arial, sans-serif; fill: #94A3B8; }
      .langName { font: 600 12px 'Segoe UI', Helvetica, Arial, sans-serif; fill: #F8FAFC; }
      .langPct { font: 400 11px 'Segoe UI', Helvetica, Arial, sans-serif; fill: #94A3B8; }
      .sectionHead { font: 700 13px 'Segoe UI', Helvetica, Arial, sans-serif; fill: #3B82F6; letter-spacing: .06em; text-transform: uppercase; }
    </style>
  </defs>

  <!-- card background -->
  <rect x="1" y="1" width="718" height="458" rx="18" fill="url(#bg)" stroke="#071A35" stroke-width="1.5"/>
  <rect x="1" y="1" width="718" height="458" rx="18" fill="none" stroke="url(#accent)" stroke-width="1" opacity="0.35"/>

  <!-- header -->
  <text x="32" y="46" class="title">João Torre</text>
  <text x="32" y="66" class="subtitle">Analista de Planejamento de Cobrança · Ciência de Dados</text>
  <line x1="32" y1="82" x2="688" y2="82" stroke="#071A35" stroke-width="1"/>

  <!-- stat grid: 4 cards -->
  <g>
    <!-- card bg helper -->
    <rect x="32" y="102" width="152" height="92" rx="12" fill="#071A35" stroke="#071A35"/>
    <rect x="250" y="102" width="130" height="92" rx="12" fill="#071A35" stroke="#071A35"/>
<rect x="395" y="102" width="130" height="92" rx="12" fill="#071A35" stroke="#071A35"/>
<rect x="540" y="102" width="148" height="92" rx="12" fill="#071A35" stroke="#071A35"/>

    <text x="52" y="132" class="label">Repositórios</text>
    <text x="52" y="168" class="value">3</text>

    <text x="268" y="132" class="label">Commits (ano)</text>
    <text x="268" y="168" class="value">142</text>

    <text x="484" y="132" class="label">Stars</text>
    <text x="484" y="168" class="value">6</text>
  </g>

  <!-- streak ring section -->
  <g transform="translate(32,214)">
    <rect x="0" y="0" width="330" height="220" rx="14" fill="#071A35" stroke="#071A35"/>
    <text x="20" y="30" class="sectionHead">Streak de contribuições</text>

    <g transform="translate(90,60)">
      <circle cx="75" cy="75" r="62" fill="none" stroke="#071A35" stroke-width="10"/>
      <circle cx="75" cy="75" r="62" fill="none" stroke="url(#accent)" stroke-width="10"
              stroke-linecap="round" stroke-dasharray="389.5" stroke-dashoffset="140"
              transform="rotate(-90 75 75)" filter="url(#glow)"/>
      <text x="75" y="70" text-anchor="middle" class="streakNum">12</text>
      <text x="75" y="92" text-anchor="middle" class="streakLbl">dias seguidos</text>
    </g>

    <text x="20" y="200" class="langPct">Maior streak: 21 dias · desde 15 mar 2025</text>
  </g>

  <!-- languages section -->
  <g transform="translate(378,214)">
    <rect x="0" y="0" width="310" height="220" rx="14" fill="#071A35" stroke="#071A35"/>
    <text x="20" y="30" class="sectionHead">Linguagens mais usadas</text>

    <!-- bar -->
    <rect x="20" y="50" width="270" height="14" rx="7" fill="#071A35"/>
    <rect x="20" y="50" width="270" height="14" rx="7" fill="url(#langbar)"/>

    <!-- legend -->
    <circle cx="26" cy="90" r="5" fill="#2563EB"/>
    <text x="38" y="94" class="langName">Python</text>
    <text x="102" y="94" class="langPct">42%</text>

    <circle cx="26" cy="116" r="5" fill="#60A5FA"/>
    <text x="38" y="120" class="langName">SQL</text>
    <text x="102" y="120" class="langPct">28%</text>

    <circle cx="160" cy="90" r="5" fill="#2563EB"/>
    <text x="172" y="94" class="langName">JavaScript</text>
    <text x="252" y="94" class="langPct">18%</text>

    <circle cx="160" cy="116" r="5" fill="#94A3B8"/>
    <text x="172" y="120" class="langName">DAX</text>
    <text x="252" y="120" class="langPct">12%</text>

    <text x="20" y="170" class="langPct">Atualizado automaticamente via GitHub Actions</text>
    <text x="20" y="190" class="langPct">joao-torre · gerado em build estático</text>
  </g>

  <text x="688" y="446" text-anchor="end" class="langPct" opacity="0.6">github.com/joao-torre</text>
</svg>
